<?xml version="1.0" encoding="UTF-8" standalone="no"?>
<svg width="120px" height="120px" viewBox="0 0 120 120" version="1.1" xmlns="http://www.w3.org/2000/svg" xmlns:xlink="http://www.w3.org/1999/xlink">
    <!-- Generator: Sketch 49 (51002) - http://www.bohemiancoding.com/sketch -->
    <title>02-watch</title>
    <desc>Created with Sketch.</desc>
    <defs></defs>
    <g id="Popups" stroke="none" stroke-width="1" fill="none" fill-rule="evenodd">
        <g id="Artboard" transform="translate(-624.000000, -256.000000)">
            <g id="02-watch" transform="translate(624.000000, 256.000000)">
                <circle id="Oval-3-Copy" fill="#E50539" cx="60" cy="60" r="60"></circle>
                <g id="prop" transform="translate(17.000000, 17.000000)" fill="#FFFFFF" fill-rule="nonzero">
                    <path d="M48.579082,48.5691719 C49.6807891,47.4728398 50.4156523,46.1091016 50.7258906,44.6250977 L63.8912813,40.0669297 C64.2278906,39.9503594 64.5186445,39.7298164 64.7217188,39.4372148 L85.6939609,9.20787891 C86.1570508,8.54053906 86.0760898,7.63720313 85.5016367,7.06291797 L78.9432969,0.504242187 C78.2875469,-0.151339844 77.2241367,-0.151339844 76.5680508,0.504242187 L68.606668,8.46579297 C51.5751406,-4.2005625 27.7225703,-2.51852344 12.598832,12.6050469 C10.1718516,15.0321953 8.04318359,17.7348125 6.27178516,20.6386563 C5.78870703,21.4304609 6.03898047,22.4639727 6.83095313,22.9470508 C7.10407031,23.1136758 7.40574219,23.193125 7.70388672,23.193125 C8.27027734,23.193125 8.82272656,22.9067383 9.13917969,22.3882188 C10.7721719,19.7116367 12.7352227,17.2194844 14.9742461,14.9804609 C28.7984102,1.15596094 50.5333984,-0.487277344 66.2042109,10.868082 L62.1049336,14.9673594 C55.8395313,10.6912109 48.2716992,8.63460156 40.6425586,9.16303125 C32.4834766,9.72807812 24.8014258,13.227875 19.011543,19.0177578 C17.4292773,20.6001914 16.0020469,22.3378281 14.7689883,24.1827969 C14.2536602,24.9539414 14.4611016,25.9968594 15.2322461,26.5123555 C15.5189688,26.7040078 15.8429805,26.7957188 16.1638008,26.7957188 C16.7060039,26.7957188 17.2379609,26.5336875 17.5618047,26.0492656 C18.67275,24.3867109 19.9597266,22.8200664 21.3867891,21.3930039 C31.5873633,11.1922617 47.7415898,9.60764453 59.6826563,17.3899727 L54.7966133,22.2760156 C50.5293672,19.8486992 45.5497656,18.7861289 40.6254258,19.2762617 C35.1674492,19.8194727 30.0218945,22.2582109 26.1367773,26.1434961 C25.4810273,26.7992461 25.4810273,27.8628242 26.1367773,28.5185742 C26.4648203,28.8466172 26.8944844,29.0105547 27.3243164,29.0105547 C27.7541484,29.0105547 28.1839805,28.8464492 28.5118555,28.5185742 C34.8090039,22.2214258 44.5196133,20.7821016 52.3158828,24.7569141 L41.8393359,35.2334609 C40.221293,35.4709688 38.6638867,36.2073438 37.4212539,37.4439297 C36.3195469,38.5402617 35.5846836,39.904 35.2744453,41.3880039 L22.1090547,45.9461719 C21.7724453,46.0627422 21.4816914,46.2832852 21.2786172,46.5758867 L0.306039062,76.8045508 C-0.157050781,77.4718906 -0.0760898438,78.3750586 0.498363281,78.9493437 L7.05687109,85.5078516 C7.38491406,85.8357266 7.81457813,85.999832 8.24441016,85.999832 C8.67424219,85.999832 9.10407422,85.8357266 9.43194922,85.5078516 L17.3935,77.5463008 C24.7906758,83.0427422 33.7546641,86 42.9931133,86 C43.7489727,86 44.5078555,85.9801797 45.2667383,85.9403711 C55.8847148,85.3830508 65.8763359,80.9320469 73.401168,73.4072148 C75.3025742,71.5058086 77.0294609,69.4251797 78.5336211,67.2229414 C79.0568438,66.4570039 78.8601523,65.4120703 78.0940469,64.8888477 C77.3282773,64.365625 76.2833438,64.5624844 75.7599531,65.3284219 C74.3728672,67.3588281 72.7801875,69.2778711 71.0257539,71.0321367 C57.1789141,84.8789766 35.4721445,86.5112969 19.7939414,75.1455234 L23.8945625,71.0449023 C29.5153008,74.8813086 36.1861797,76.9306953 43.0047031,76.9306953 C43.8133047,76.9306953 44.6247617,76.9019727 45.4360508,76.8436875 C53.5647305,76.2618437 61.2187305,72.7640625 66.9882891,66.9945039 C68.3394297,65.6431953 69.5812227,64.1749805 70.6792344,62.6300039 C71.2163984,61.8739766 71.0393594,60.8255156 70.2831641,60.2881836 C69.5273047,59.7510195 68.4786758,59.9282266 67.9413438,60.6842539 C66.9518398,62.0767148 65.8321602,63.4006445 64.6133789,64.6195937 C54.4296016,74.8035391 38.2520273,76.3980664 26.3175117,68.622625 L31.2054023,63.7347344 C34.792207,65.7747148 38.8819102,66.8532422 43.0191484,66.8532422 C43.8164961,66.8532422 44.6158594,66.8132656 45.413207,66.7326406 C50.8562344,66.1820391 55.9881836,63.7446445 59.8633906,59.8692695 C60.5191406,59.2135195 60.5191406,58.1501094 59.8633906,57.4941914 C59.2076406,56.8382734 58.1442305,56.8384414 57.4883125,57.4941914 C51.1978828,63.7844531 41.4783711,65.2281445 33.6841172,61.2561875 L44.160832,50.7794727 C45.778875,50.5419648 47.3364492,49.8055898 48.579082,48.5691719 Z M77.7555898,4.06702734 L82.1343672,8.44580469 L62.2740781,37.0722148 L50.659375,41.0935547 C50.3172227,39.7234336 49.6072188,38.4670273 48.5785781,37.4434258 C47.8344766,36.7030195 46.9768281,36.1433477 46.0615664,35.7610508 L77.7555898,4.06702734 Z M8.24441016,81.9452344 L3.86563281,77.5662891 L23.7260898,48.9398789 L35.340793,44.918707 C35.6829453,46.2888281 36.3929492,47.5452344 37.4215898,48.5688359 C38.1656914,49.3092422 39.0233398,49.8689141 39.9386016,50.2512109 L8.24441016,81.9452344 Z M39.7907891,46.1880469 C38.936332,45.3377891 38.4655156,44.2076953 38.4655156,43.0062148 C38.4655156,42.9833711 38.4668594,42.9608633 38.4671953,42.9381875 C38.4925586,42.8028047 38.500957,42.6637266 38.4918867,42.5234727 C38.6005625,41.5044063 39.0517266,40.55975 39.7907891,39.8242148 C40.6756484,38.9438906 41.8378242,38.5034766 43,38.5034766 C44.1621758,38.5034766 45.3245195,38.9438906 46.2092109,39.8242148 C47.063668,40.6744727 47.5344844,41.8045664 47.5344844,43.0060469 C47.5344844,43.0288906 47.5331406,43.0513984 47.5328047,43.0740742 C47.5074414,43.209457 47.499043,43.3485352 47.5081133,43.4887891 C47.3994375,44.5078555 46.9482734,45.4525117 46.2092109,46.1880469 C44.4396602,47.9490313 41.5600039,47.9488633 39.7907891,46.1880469 Z" id="Shape"></path>
                    <path d="M81.2278398,58.8127461 C80.3876602,58.4202031 79.3880781,58.7830156 78.9953672,59.6233633 L78.9767227,59.6636758 C78.5897227,60.5067109 78.9594219,61.5036055 79.802457,61.8906055 C80.0295508,61.9947461 80.2677305,62.0441289 80.5020469,62.0441289 C81.1381445,62.0441289 81.7466953,61.6808125 82.0295547,61.0648711 L82.038793,61.0450508 C82.431168,60.2050391 82.0680195,59.205457 81.2278398,58.8127461 Z" id="Shape"></path>
                    <path d="M5.48283594,25.6316953 C4.62921875,25.2690508 3.64324219,25.6673047 3.28059766,26.5210898 C3.27807813,26.5271367 3.268,26.5511563 3.26564844,26.5572031 C2.91325,27.4148516 3.3244375,28.3914219 4.18208594,28.7443242 C4.39003125,28.8298203 4.60553516,28.8703008 4.81734375,28.8703008 C5.47846875,28.8703008 6.10683984,28.4764141 6.37475,27.8282227 C6.73302734,26.9759492 6.33477344,25.9935 5.48283594,25.6316953 Z" id="Shape"></path>
                </g>
            </g>
        </g>
    </g>
</svg>