<?xml version="1.0" encoding="UTF-8" standalone="no"?>
<svg width="120px" height="120px" viewBox="0 0 120 120" version="1.1" xmlns="http://www.w3.org/2000/svg" xmlns:xlink="http://www.w3.org/1999/xlink">
    <!-- Generator: sketchtool 49 (51002) - http://www.bohemiancoding.com/sketch -->
    <title>42967E12-268B-43BD-B851-34F045D1769B</title>
    <desc>Created with sketchtool.</desc>
    <defs></defs>
    <g id="Page-1" stroke="none" stroke-width="1" fill="none" fill-rule="evenodd">
        <g id="how-to-play" transform="translate(-894.000000, -256.000000)">
            <g id="03-cashout" transform="translate(894.000000, 256.000000)">
                <circle id="Oval-3-Copy-2" fill="#E50539" cx="60" cy="60" r="60"></circle>
                <g id="flaticon1540029097-svg-copy" transform="translate(10.000000, 14.000000)" fill="#FFFFFF" fill-rule="nonzero">
                    <path d="M76.2747178,37.5792325 C76.2724605,37.5607223 76.2711061,37.5419865 76.2683973,37.523702 C76.2553047,37.4325056 76.2379233,37.341535 76.2133183,37.251693 C76.2130926,37.2507901 76.2126411,37.2498871 76.2124153,37.2487585 C76.1893905,37.1647856 76.1600451,37.0819413 76.1268623,37 C76.1173815,36.9765237 76.1069977,36.9539503 76.0968397,36.9309255 C76.0706546,36.8717833 76.041535,36.813544 76.0099323,36.7562077 C75.9961625,36.7311512 75.9828442,36.7060948 75.9679458,36.6814898 C75.9600451,36.6681716 75.9537246,36.6544018 75.9453725,36.6410835 C75.9119639,36.5880361 75.875395,36.538149 75.8383747,36.4887133 C75.831377,36.4794582 75.8257336,36.4697517 75.8187359,36.4607223 C75.7623025,36.3875847 75.7013544,36.3196388 75.6374718,36.2553047 C75.6255079,36.2431151 75.6124153,36.2318284 75.6,36.2200903 C75.5444695,36.1665914 75.4869074,36.1164786 75.4268623,36.0693002 C75.4115124,36.0573363 75.396614,36.0453725 75.3808126,36.03386 C75.3004515,35.9742664 75.2176072,35.9187359 75.1311512,35.8706546 L41.8749436,16.9670429 L61.0227991,4.90970655 L93.123702,23.1562077 L79.6042889,31.6693002 C78.5492099,32.3334086 78.2325056,33.7273138 78.8968397,34.782167 C79.5609481,35.837246 80.9546275,36.1539503 82.0097065,35.4896163 L98.7198646,24.9674944 C99.3916479,24.5446953 99.7918736,23.8 99.7738149,23.0063205 C99.7559819,22.2126411 99.3227991,21.4871332 98.6325056,21.0948081 L62.078781,0.316930023 C61.3557562,-0.0943566591 60.4647856,-0.0740406321 59.7604966,0.369074492 L36.2941309,15.1458239 C36.2893905,15.1487585 36.2844244,15.1519187 36.279684,15.1548533 L24.5534989,22.5388262 C24.5480813,22.5422122 24.5426637,22.5455982 24.5374718,22.5489842 L1.05507901,37.3358916 C0.383295711,37.7586907 -0.0169300226,38.503386 0.00112866817,39.2970655 C0.0189616253,40.0907449 0.45214447,40.8162528 1.14243792,41.2085779 L37.6963883,61.986456 C38.0426637,62.1835214 38.4273138,62.2814898 38.8117381,62.2814898 C39.2300226,62.2814898 39.6476298,62.165237 40.014447,61.9343115 L56.724605,51.4119639 C57.779684,50.7478555 58.0963883,49.3539503 57.4320542,48.2990971 C56.7681716,47.2440181 55.3740406,46.927088 54.3191874,47.5916479 L38.7523702,57.3939052 L6.65146727,39.1469526 L25.7995485,27.0893905 L60.0365688,46.5503386 L60.0365688,72.3250564 C60.0365688,73.1471783 60.4832957,73.9040632 61.2029345,74.3013544 C61.5431151,74.4891648 61.9187359,74.5823928 62.2939052,74.5823928 C62.7124153,74.5823928 63.1300226,74.46614 63.496614,74.2352144 L75.2379233,66.8417607 C75.8943567,66.4284424 76.2925508,65.7072235 76.2925508,64.9316027 L76.2925508,37.8435666 C76.2925508,37.8302483 76.2902935,37.8176072 76.289842,37.8042889 C76.2884876,37.7293454 76.2835214,37.6544018 76.2747178,37.5792325 Z M64.5512415,68.2363431 L64.5512415,45.237246 C64.5512415,44.4252822 64.1151242,43.6760722 63.4092551,43.2749436 L30.1336343,24.3604966 L37.5406321,19.6961625 L69.6413093,37.9428894 L66.8306998,39.7126411 C65.7756208,40.3767494 65.4589165,41.7706546 66.1232506,42.8255079 C66.5521445,43.5072235 67.285553,43.8803612 68.0356659,43.8803612 C68.4465011,43.8803612 68.862754,43.7681716 69.2361174,43.5329571 L71.7776524,41.9327314 L71.7776524,63.6857788 L64.5512415,68.2363431 Z" id="Shape"></path>
                    <path d="M96.3146727,30.176298 L79.6045147,40.6984199 C78.5494357,41.3625282 78.2327314,42.7564334 78.8970655,43.8112867 C79.3259594,44.4930023 80.0593679,44.86614 80.8094808,44.86614 C81.220316,44.86614 81.6365688,44.7539503 82.0099323,44.5187359 L98.7200903,33.996614 C99.7751693,33.3325056 100.091874,31.9386005 99.4275395,30.8837472 C98.7634312,29.8286682 97.369526,29.5117381 96.3146727,30.176298 Z" id="Shape"></path>
                    <path d="M54.3189616,56.6207675 L38.7521445,66.4230248 L3.3731377,46.3130926 C2.29006772,45.6972912 0.911286682,46.0756208 0.295259594,47.1600451 C-0.320767494,48.2437923 0.0582392777,49.6218962 1.14221219,50.2379233 L37.6961625,71.0158014 C38.0424379,71.2128668 38.427088,71.3108352 38.8115124,71.3108352 C39.2297968,71.3108352 39.6474041,71.1945824 40.0142212,70.9636569 L56.7243792,60.4413093 C57.7794582,59.7772009 58.0961625,58.3832957 57.4318284,57.3284424 C56.7679458,56.2731377 55.3738149,55.9562077 54.3189616,56.6207675 Z" id="Shape"></path>
                    <path d="M96.3146727,39.2056433 L79.6045147,49.7277652 C78.5494357,50.3918736 78.2327314,51.7857788 78.8970655,52.8406321 C79.3259594,53.5223476 80.0593679,53.8954853 80.8094808,53.8954853 C81.220316,53.8954853 81.6365688,53.7832957 82.0099323,53.5480813 L98.7200903,43.0259594 C99.7751693,42.361851 100.091874,40.9679458 99.4275395,39.9130926 C98.7634312,38.8577878 97.369526,38.5410835 96.3146727,39.2056433 Z" id="Shape"></path>
                    <path d="M54.3189616,65.6501129 L38.7521445,75.4523702 L3.3731377,55.3424379 C2.29006772,54.7266366 0.911286682,55.1049661 0.295259594,56.1893905 C-0.320767494,57.2731377 0.0582392777,58.6512415 1.14221219,59.2672686 L37.6961625,80.0451467 C38.0424379,80.2422122 38.427088,80.3401806 38.8115124,80.3401806 C39.2297968,80.3401806 39.6474041,80.2239278 40.0142212,79.9930023 L56.7243792,69.4706546 C57.7794582,68.8065463 58.0961625,67.4126411 57.4318284,66.3577878 C56.7679458,65.3022573 55.3738149,64.985553 54.3189616,65.6501129 Z" id="Shape"></path>
                    <path d="M96.3146727,48.2349887 L79.6045147,58.7571106 C78.5494357,59.421219 78.2327314,60.8151242 78.8970655,61.8699774 C79.3259594,62.551693 80.0593679,62.9248307 80.8094808,62.9248307 C81.220316,62.9248307 81.6365688,62.8126411 82.0099323,62.5774266 L98.7200903,52.0553047 C99.7751693,51.3911964 100.091874,49.9972912 99.4275395,48.9424379 C98.7634312,47.8873589 97.369526,47.5706546 96.3146727,48.2349887 Z" id="Shape"></path>
                    <path d="M54.3189616,74.6794582 L38.7521445,84.4817156 L3.3731377,64.3717833 C2.29006772,63.7559819 0.911286682,64.1343115 0.295259594,65.2187359 C-0.320767494,66.3024831 0.0582392777,67.6805869 1.14221219,68.296614 L37.6961625,89.0744921 C38.0424379,89.2715576 38.427088,89.369526 38.8115124,89.369526 C39.2297968,89.369526 39.6474041,89.2532731 40.0142212,89.0223476 L56.7243792,78.5 C57.7794582,77.8358916 58.0961625,76.4419865 57.4318284,75.3871332 C56.7679458,74.3318284 55.3738149,74.0148984 54.3189616,74.6794582 Z" id="Shape"></path>
                </g>
            </g>
        </g>
    </g>
</svg>