<svg width="19" height="16" viewBox="0 0 19 16" xmlns="http://www.w3.org/2000/svg">
    <g fill="#767B85" fill-rule="evenodd">
        <path d="M14.682 8.51v-6.8C14.682.768 13.927 0 13 0H1.68C.755 0 0 .768 0 1.71v6.8c0 .942.755 1.71 1.68 1.71h.48v2.05a.68.68 0 0 0 .677.685c.194 0 .38-.087.51-.239l2.123-2.5h7.535c.922.004 1.677-.764 1.677-1.706zm-9.424.783a.454.454 0 0 0-.345.16l-1.845 2.166V9.755a.461.461 0 0 0-.457-.466h-.93a.778.778 0 0 1-.77-.782V1.71c0-.432.346-.783.77-.783H13c.424 0 .77.351.77.783v6.8a.778.778 0 0 1-.77.783H5.258z"/>
        <path d="M15.552 15.307a.69.69 0 0 0 .767.193.678.678 0 0 0 .453-.643v-2.05h.495c.955 0 1.733-.767 1.733-1.708V4.3c0-.941-.778-1.71-1.733-1.71a.467.467 0 0 0-.472.462c0 .257.21.465.472.465a.79.79 0 0 1 .793.783v6.799a.79.79 0 0 1-.793.782h-.963a.468.468 0 0 0-.472.466v1.864l-1.902-2.167a.469.469 0 0 0-.356-.159H6.517a.468.468 0 0 0-.472.465c0 .257.211.465.472.465h6.842l2.193 2.492z" fill-rule="nonzero"/>
        <circle fill-rule="nonzero" cx="7.341" cy="4.75" r="1.295"/>
        <circle fill-rule="nonzero" cx="9.932" cy="4.75" r="1.295"/>
        <circle fill-rule="nonzero" cx="4.75" cy="4.75" r="1.295"/>
    </g>
</svg>
