<svg xmlns="http://www.w3.org/2000/svg" width="34" height="14" viewBox="0 0 34 14">
    <g fill="none" fill-rule="evenodd">
        <path fill="#131313" d="M-326-631h1368V19H-326z"/>
        <g fill="#FFF" opacity=".5">
            <path d="M.048 8.762v-.689h1.806v.801c0 .733.282 1.1.845 1.1h.007c.558 0 .838-.366.838-1.096 0-.418-.12-.809-.362-1.174-.24-.366-.529-.7-.864-1.003l-.906-.94a4.144 4.144 0 0 1-.94-1.22 3.445 3.445 0 0 1-.378-1.613c0-.908.238-1.604.715-2.09C1.284.355 1.93.112 2.749.112c.816 0 1.444.243 1.882.728.438.484.657 1.18.657 2.088v.36H3.622v-.47c0-.735-.295-1.103-.884-1.103-.59 0-.884.369-.884 1.104 0 .308.065.602.193.881.128.28.294.531.499.756.204.224.43.446.675.665.246.22.49.45.73.69.239.24.46.496.664.77.204.274.369.598.497.97.128.374.191.78.191 1.218 0 .905-.224 1.6-.672 2.084-.449.483-1.081.725-1.899.725-.817 0-1.47-.242-1.955-.727-.487-.485-.73-1.181-.73-2.088M8.064 5.64h.837c.287 0 .502-.08.646-.242.143-.161.215-.435.215-.821V2.896c0-.387-.072-.659-.215-.818-.144-.159-.36-.238-.646-.238h-.837v3.8zm-1.76 5.812V.236h2.593c1.75 0 2.625.927 2.625 2.78v1.457c0 1.847-.875 2.771-2.623 2.771h-.835v4.208h-1.76zM14.103 5.289h.688c.354 0 .62-.091.794-.274.174-.182.262-.487.262-.915V2.997c.005-.771-.292-1.157-.892-1.157h-.852v3.449zm-1.76 6.163V.236h2.655c.906 0 1.567.212 1.984.634.416.423.625 1.072.625 1.949v.884c0 1.153-.385 1.912-1.153 2.278.779.329 1.168 1.124 1.168 2.387v1.796c0 .573.063 1.002.188 1.288h-1.784c-.104-.317-.158-.775-.164-1.374V8.32c0-.51-.09-.876-.27-1.097-.18-.221-.473-.332-.88-.332h-.61v4.56h-1.76zM18.78 11.452h1.76V.236h-1.76zM23.582 9.849h1.01c.307 0 .536-.082.687-.247.151-.164.227-.45.227-.856v-.978c0-.51-.087-.865-.262-1.063-.175-.199-.465-.298-.872-.298h-.79V9.85zm0-5.045h.691c.356 0 .622-.091.798-.274.175-.182.263-.485.263-.907v-.626c.005-.771-.293-1.157-.896-1.157h-.856v2.964zm-1.76 6.648V.236h2.66c.907 0 1.57.212 1.986.634.417.422.626 1.071.626 1.947v.4c0 1.152-.38 1.905-1.142 2.26.876.344 1.314 1.144 1.314 2.4v.916c0 .865-.227 1.525-.68 1.979-.454.453-1.12.68-1.995.68h-2.769zM28.322 11.452V.236h4.802V1.84h-3.042v3.12h2.416v1.604h-2.416v3.285h3.042v1.603zM0 13.736h33.149v-1.557H0z"/>
        </g>
    </g>
</svg>
