<svg id="Layer_1" data-name="Layer 1" xmlns="http://www.w3.org/2000/svg" viewBox="0 0 12 11"><defs><style>.cls-1{fill:#FFFFFF; fill-opacity: 0.3}</style></defs><title>Untitled-1</title><g id="Symbols"><g id="like"><path class="cls-1" d="M476.8,273.65l-0.44,2-0.27,1.22h4.79l0.07,0V278s0,0,0,0l-1.66,3.84a0.11,0.11,0,0,1-.1.06h-5.06a0.12,0.12,0,0,1-.12-0.1v-5.52l0,0,2.76-2.7M471,277v0m6-5-3.71,3.63a0.91,0.91,0,0,0-.34.77v5.5a1.12,1.12,0,0,0,1.13,1.1h5.06a1.11,1.11,0,0,0,1-.66l1.69-3.91a0.92,0.92,0,0,0,.06-0.38v-1.1H482a1.12,1.12,0,0,0-1.12-1.1h-3.54l0.56-2.53v-0.17a1.14,1.14,0,0,0-.22-0.61L477,272h0Zm-5,4h-2v7h2v-7h0Zm10,0.95h0Zm0,0v0h0Z" transform="translate(-470 -272)"/></g></g></svg>
