<?xml version="1.0" encoding="UTF-8" standalone="no"?>
<svg width="23px" height="26px" viewBox="0 0 23 26" version="1.1" xmlns="http://www.w3.org/2000/svg" xmlns:xlink="http://www.w3.org/1999/xlink">
    <!-- Generator: sketchtool 49 (51002) - http://www.bohemiancoding.com/sketch -->
    <title>BA5F7D89-214B-44BF-93CE-7523ADE19A89</title>
    <desc>Created with sketchtool.</desc>
    <defs>
        <linearGradient x1="9.96556713%" y1="0%" x2="97.7427662%" y2="0%" id="linearGradient-1">
            <stop stop-color="#57B314" offset="0%"></stop>
            <stop stop-color="#1E9F04" offset="100%"></stop>
        </linearGradient>
    </defs>
    <g id="Page-1" stroke="none" stroke-width="1" fill="none" fill-rule="evenodd">
        <g id="1368-1" transform="translate(-194.000000, -17.000000)" fill="url(#linearGradient-1)" fill-rule="nonzero">
            <g id="provably-fair" transform="translate(178.000000, 12.000000)">
                <g id="icon-provabyfair" transform="translate(16.000000, 5.000000)">
                    <path d="M21.7627096,4.4808694 C18.1923977,3.50260039 14.6011033,1.97934503 11.3770526,0.0758206628 C11.2057973,-0.0252904483 10.9932865,-0.0252904483 10.8220819,0.0758206628 C7.50502924,2.03403119 4.10779727,3.47487719 0.436120858,4.4808694 C0.198927875,4.54579337 0.0345146199,4.76139571 0.0345146199,5.00735673 L0.0345146199,10.5847368 C0.0345146199,16.3282027 2.68413255,20.1299805 4.90695517,22.307848 C7.29996881,24.6526628 10.0874932,25.9493684 11.0995673,25.9493684 C12.11154,25.9493684 14.8990643,24.6526628 17.292078,22.307848 C19.5148499,20.1300312 22.1643158,16.3282534 22.1643158,10.5847368 L22.1643158,5.00730604 C22.1643158,4.76139571 21.9999025,4.54579337 21.7627096,4.4808694 Z M21.0726199,10.5846862 C21.0726199,15.9490487 18.6013021,19.4965536 16.5279922,21.528 C14.1747641,23.8337895 11.6587446,24.8575712 11.0995673,24.8575712 C10.5403899,24.8575712 8.02421832,23.8337895 5.67093957,21.528 C3.59768031,19.4965029 1.12626121,15.9490487 1.12626121,10.5846862 L1.12626121,5.42168421 C4.6374269,4.42476413 7.90734503,3.03348538 11.0996686,1.17836257 C14.212269,2.9842729 17.6453333,4.44473294 21.0726199,5.42148148 L21.0726199,10.5846862 Z" id="Shape"></path>
                    <path d="M6.26118519,5.36061209 C6.15069786,5.08008577 5.83378168,4.9422807 5.55320468,5.05281871 C4.57807797,5.43704094 3.57720468,5.79070175 2.57840936,6.10401949 C2.35079532,6.17548148 2.19591033,6.38631969 2.19591033,6.62483041 L2.19591033,8.73275634 C2.19591033,9.03421442 2.44035088,9.27860429 2.74175828,9.27860429 C3.04316569,9.27860429 3.28760624,9.03421442 3.28760624,8.73275634 L3.28760624,7.02375049 C4.18361793,6.73384795 5.07866667,6.41318129 5.95339181,6.06849123 C6.23391813,5.95805458 6.3717232,5.6411384 6.26118519,5.36061209 Z" id="Shape"></path>
                    <path d="M7.29809357,5.46415595 C7.37132943,5.46415595 7.44568031,5.44940741 7.51699025,5.4182885 L7.52702534,5.41392982 C7.80319298,5.29290058 7.92756725,4.971423 7.80653801,4.69535673 C7.68540741,4.41918908 7.36210526,4.29425731 7.08624172,4.41518519 L7.077423,4.41898635 C6.80110331,4.53966082 6.67632359,4.86088499 6.79699805,5.13710331 C6.88655361,5.34216374 7.08750877,5.46415595 7.29809357,5.46415595 Z" id="Shape"></path>
                    <path d="M17.6030643,17.6010877 C17.3508187,17.4362183 17.0125653,17.5071228 16.8474932,17.7594698 C16.3976881,18.4479376 15.8699844,19.1072125 15.2788265,19.7187953 C14.7926823,20.2216647 14.2658908,20.6903743 13.7130994,21.1117973 C13.473423,21.2945575 13.4273021,21.6370682 13.6100117,21.876846 C13.7175088,22.017692 13.8800468,22.0917895 14.04446,22.0917895 C14.1599142,22.0917895 14.27623,22.0553489 14.3750604,21.9799337 C14.9713372,21.5252632 15.5394854,21.019809 16.0636413,20.4776101 C16.7027953,19.8165107 17.2739844,19.1029045 17.7614464,18.3566082 C17.9264172,18.1042105 17.8554113,17.7659571 17.6030643,17.6010877 Z" id="Shape"></path>
                    <path d="M12.4454347,21.9678713 L12.4141131,21.9863197 C12.1532515,22.1374035 12.0641014,22.4712982 12.2151345,22.7321598 C12.316347,22.9070136 12.4995634,23.0046277 12.6880507,23.0046277 C12.7807992,23.0046277 12.8749669,22.9809591 12.9609747,22.931037 L12.9971111,22.9098012 C13.2572632,22.7574503 13.3446394,22.4230994 13.1922885,22.1629474 C13.0398363,21.9028967 12.7054347,21.8156725 12.4454347,21.9678713 Z" id="Shape"></path>
                    <path d="M7.37877973,11.8606121 C7.04361793,11.5253996 6.59786745,11.3409162 6.12378558,11.3409162 C5.6497037,11.3409162 5.20390253,11.5254503 4.86858869,11.8606121 C4.17662378,12.552729 4.17662378,13.6788889 4.86858869,14.3709552 L8.09177778,17.5940429 C8.42699025,17.929154 8.87274074,18.1136881 9.34687329,18.1136881 C9.82100585,18.1136881 10.2667563,17.929154 10.6020195,17.5939415 L17.3306472,10.8652632 C18.0225614,10.1729942 18.0225614,9.04698635 17.3305458,8.35512281 C16.9953333,8.01991033 16.5495828,7.8354269 16.0753996,7.8354269 C15.6012671,7.8354269 15.1555166,8.01996101 14.8202534,8.35512281 L9.34682261,13.8285536 L7.37877973,11.8606121 Z M15.5922456,9.12711501 C15.721232,8.99812865 15.8928928,8.92712281 16.0754503,8.92712281 C16.2581092,8.92712281 16.4296179,8.99812865 16.5587057,9.12711501 C16.8250409,9.39345029 16.8250409,9.82698635 16.5586043,10.093423 L9.83007797,16.822 C9.70109162,16.9509864 9.5294308,17.0219922 9.34687329,17.0219922 C9.16431579,17.0219922 8.99265497,16.9509864 8.86361793,16.822 L5.64053021,13.5990136 C5.37409357,13.332577 5.37409357,12.8990409 5.64042885,12.6327057 C5.76946589,12.5037193 5.94112671,12.4326121 6.12373489,12.4326121 C6.30634308,12.4326121 6.47790253,12.5036179 6.60688889,12.6326043 L8.96082651,14.9865926 C9.06325536,15.0889201 9.20202339,15.1464444 9.34682261,15.1464444 C9.49162183,15.1464444 9.63038986,15.0889708 9.73271735,14.9865926 L15.5922456,9.12711501 Z" id="Shape"></path>
                </g>
            </g>
        </g>
    </g>
</svg>