<svg xmlns="http://www.w3.org/2000/svg" width="16" height="14" viewBox="0 0 16 14">
    <path fill="none" fill-rule="nonzero" stroke="#98A4AE" d="M13.908 3.054c-.63-.774-1.49-1.39-2.591-1.846C10.205.747 8.987.515 7.66.515c-.989 0-1.932.137-2.83.41-.896.273-1.662.638-2.3 1.095-.629.451-1.126.984-1.495 1.6A3.573 3.573 0 0 0 .5 5.486c0 .752.226 1.454.685 2.119.472.682 1.12 1.259 1.951 1.73l.34.192-.104.375c-.068.249-.15.485-.243.71-.09.218-.173.398-.25.543a3.959 3.959 0 0 1-.317.5 4.8 4.8 0 0 1-.299.38l-.293.323-.226.251c.227-.037.432-.081.62-.135a8.845 8.845 0 0 0 3.726-1.96l.165-.145.219.023c.41.044.806.066 1.187.066 1.326 0 2.544-.232 3.655-.693 1.1-.457 1.962-1.072 2.592-1.846.613-.753.913-1.559.913-2.433 0-.874-.3-1.68-.913-2.433zM1.603 12.728l-.06.045c.049-.023.057-.014.06-.01v.01l-.033.05c.039-.058.059-.09.06-.142-.01 0-.014.026-.02.054-.019-.013-.025-.055-.04-.1l.021-.002.012.015v.08zm.006.036c.005-.004.014-.016.036-.043-.044.053-.043.052-.024.025l-.012.018zm12.299-9.71zM.609 12.648a.81.81 0 0 0 .002-.001z"/>
</svg>
